<mxfile host="app.diagrams.net" modified="2021-10-15T04:01:30.720Z" agent="5.0 (Windows NT 10.0; Win64; x64) AppleWebKit/537.36 (KHTML, like Gecko) Chrome/94.0.4606.81 Safari/537.36 Edg/94.0.992.47" etag="X6o3XtK8l6_-G10Q-JGu" version="15.5.2" type="github">
  <diagram id="C5RBs43oDa-KdzZeNtuy" name="Page-1">
    <mxGraphModel dx="1038" dy="571" grid="1" gridSize="10" guides="1" tooltips="1" connect="1" arrows="1" fold="1" page="1" pageScale="1" pageWidth="827" pageHeight="1169" math="0" shadow="0">
      <root>
        <mxCell id="WIyWlLk6GJQsqaUBKTNV-0" />
        <mxCell id="WIyWlLk6GJQsqaUBKTNV-1" parent="WIyWlLk6GJQsqaUBKTNV-0" />
        <mxCell id="ZuRAZRv1wf484eOntKRE-15" value="폰&lt;br&gt;알림" style="verticalLabelPosition=bottom;verticalAlign=top;html=1;shape=process;whiteSpace=wrap;rounded=1;size=0.14;arcSize=6;fontSize=20;strokeColor=#000099;fillColor=#9999FF;rotation=90;gradientColor=#ffffff;align=left;" parent="WIyWlLk6GJQsqaUBKTNV-1" vertex="1">
          <mxGeometry x="330" y="140" width="100" height="60" as="geometry" />
        </mxCell>
        <mxCell id="ZuRAZRv1wf484eOntKRE-25" value="폰&lt;br&gt;알림" style="verticalLabelPosition=bottom;verticalAlign=top;html=1;shape=process;whiteSpace=wrap;rounded=1;size=0.14;arcSize=6;fontSize=20;strokeColor=#000099;fillColor=#9999FF;rotation=90;gradientColor=#ffffff;align=left;" parent="WIyWlLk6GJQsqaUBKTNV-1" vertex="1">
          <mxGeometry x="330" y="670" width="100" height="60" as="geometry" />
        </mxCell>
        <mxCell id="ZuRAZRv1wf484eOntKRE-20" value="&lt;br&gt;&lt;span style=&quot;font-size: 20px&quot;&gt;&lt;br&gt;창문&lt;/span&gt;" style="shape=cube;whiteSpace=wrap;html=1;boundedLbl=1;backgroundOutline=1;darkOpacity=0.05;darkOpacity2=0.1;rotation=90;size=30;align=center;strokeColor=#000099;fillColor=#004C99;" parent="WIyWlLk6GJQsqaUBKTNV-1" vertex="1">
          <mxGeometry x="520" y="720" width="237.5" height="225" as="geometry" />
        </mxCell>
        <mxCell id="ZuRAZRv1wf484eOntKRE-23" value="" style="curved=1;endArrow=classic;html=1;rounded=0;fontSize=20;strokeColor=#0000CC;" parent="WIyWlLk6GJQsqaUBKTNV-1" edge="1">
          <mxGeometry x="530" y="480" width="50" height="50" as="geometry">
            <mxPoint x="520" y="860" as="sourcePoint" />
            <mxPoint x="456" y="750" as="targetPoint" />
            <Array as="points">
              <mxPoint x="520" y="810" />
            </Array>
          </mxGeometry>
        </mxCell>
        <mxCell id="ZuRAZRv1wf484eOntKRE-34" value="" style="rounded=0;whiteSpace=wrap;html=1;fontSize=11;strokeColor=#000099;fillColor=#67AB9F;gradientColor=#ffffff;align=center;rotation=90;" parent="WIyWlLk6GJQsqaUBKTNV-1" vertex="1">
          <mxGeometry x="515" y="845" width="210" height="10" as="geometry" />
        </mxCell>
        <mxCell id="ZuRAZRv1wf484eOntKRE-35" value="" style="rounded=0;whiteSpace=wrap;html=1;fontSize=11;strokeColor=#000099;fillColor=#67AB9F;gradientColor=#ffffff;align=center;rotation=-180;" parent="WIyWlLk6GJQsqaUBKTNV-1" vertex="1">
          <mxGeometry x="530" y="845" width="190" height="10" as="geometry" />
        </mxCell>
        <mxCell id="ZuRAZRv1wf484eOntKRE-0" value="&lt;font style=&quot;font-size: 20px&quot;&gt;문&lt;/font&gt;" style="shape=cube;whiteSpace=wrap;html=1;boundedLbl=1;backgroundOutline=1;darkOpacity=0.05;darkOpacity2=0.1;rotation=90;size=30;align=center;strokeColor=#000099;fillColor=#004C99;" parent="WIyWlLk6GJQsqaUBKTNV-1" vertex="1">
          <mxGeometry x="432.5" y="167.5" width="480" height="225" as="geometry" />
        </mxCell>
        <mxCell id="ZuRAZRv1wf484eOntKRE-1" value="" style="ellipse;whiteSpace=wrap;html=1;aspect=fixed;fontSize=20;align=center;fillColor=#CCCCCC;" parent="WIyWlLk6GJQsqaUBKTNV-1" vertex="1">
          <mxGeometry x="572.5" y="296.25" width="30" height="30" as="geometry" />
        </mxCell>
        <mxCell id="ZuRAZRv1wf484eOntKRE-12" value="" style="curved=1;endArrow=classic;html=1;rounded=0;fontSize=20;strokeColor=#0000CC;" parent="WIyWlLk6GJQsqaUBKTNV-1" edge="1">
          <mxGeometry x="560" y="40" width="50" height="50" as="geometry">
            <mxPoint x="550" y="420" as="sourcePoint" />
            <mxPoint x="440" y="230" as="targetPoint" />
            <Array as="points">
              <mxPoint x="550" y="370" />
            </Array>
          </mxGeometry>
        </mxCell>
        <mxCell id="ZuRAZRv1wf484eOntKRE-16" value="인식" style="edgeLabel;html=1;align=center;verticalAlign=middle;resizable=0;points=[];fontSize=20;" parent="ZuRAZRv1wf484eOntKRE-12" vertex="1" connectable="0">
          <mxGeometry x="0.271" y="1" relative="1" as="geometry">
            <mxPoint as="offset" />
          </mxGeometry>
        </mxCell>
        <mxCell id="gwM2lU5lngFY_y6Us-kG-0" value="리드 스위치" style="shape=cube;whiteSpace=wrap;html=1;boundedLbl=1;backgroundOutline=1;darkOpacity=0.05;darkOpacity2=0.1;fontSize=20;strokeColor=#000099;fillColor=#CCCCCC;align=center;size=10;rotation=90;" vertex="1" parent="WIyWlLk6GJQsqaUBKTNV-1">
          <mxGeometry x="560" y="430" width="80" height="55.94" as="geometry" />
        </mxCell>
        <mxCell id="gwM2lU5lngFY_y6Us-kG-2" value="리드 스위치" style="shape=cube;whiteSpace=wrap;html=1;boundedLbl=1;backgroundOutline=1;darkOpacity=0.05;darkOpacity2=0.1;fontSize=20;strokeColor=#000099;fillColor=#CCCCCC;align=center;size=10;rotation=90;" vertex="1" parent="WIyWlLk6GJQsqaUBKTNV-1">
          <mxGeometry x="520" y="880" width="80" height="55.94" as="geometry" />
        </mxCell>
        <mxCell id="gwM2lU5lngFY_y6Us-kG-3" value="" style="group" vertex="1" connectable="0" parent="WIyWlLk6GJQsqaUBKTNV-1">
          <mxGeometry x="201" y="370" width="347.38" height="136.79000000000008" as="geometry" />
        </mxCell>
        <mxCell id="ZuRAZRv1wf484eOntKRE-10" value="" style="curved=1;endArrow=classic;html=1;rounded=0;fontSize=20;strokeColor=#999900;" parent="gwM2lU5lngFY_y6Us-kG-3" edge="1">
          <mxGeometry y="7.970000000000027" width="50" height="50" as="geometry">
            <mxPoint x="-60" y="137.97000000000003" as="sourcePoint" />
            <mxPoint x="129" y="77.97000000000003" as="targetPoint" />
            <Array as="points">
              <mxPoint x="129" y="127.97000000000003" />
              <mxPoint y="57.97000000000003" />
            </Array>
          </mxGeometry>
        </mxCell>
        <mxCell id="ZuRAZRv1wf484eOntKRE-11" value="전류" style="edgeLabel;html=1;align=center;verticalAlign=middle;resizable=0;points=[];fontSize=20;" parent="ZuRAZRv1wf484eOntKRE-10" vertex="1" connectable="0">
          <mxGeometry x="-0.4398" y="13" relative="1" as="geometry">
            <mxPoint as="offset" />
          </mxGeometry>
        </mxCell>
        <mxCell id="ZuRAZRv1wf484eOntKRE-5" value="" style="shape=cube;whiteSpace=wrap;html=1;boundedLbl=1;backgroundOutline=1;darkOpacity=0.05;darkOpacity2=0.1;fontSize=20;strokeColor=#000099;fillColor=#999999;align=center;size=20;rotation=90;" parent="gwM2lU5lngFY_y6Us-kG-3" vertex="1">
          <mxGeometry x="169.19" y="-41.39999999999998" width="133.67" height="222.71" as="geometry" />
        </mxCell>
        <mxCell id="ZuRAZRv1wf484eOntKRE-7" value="ESP" style="shape=cube;whiteSpace=wrap;html=1;boundedLbl=1;backgroundOutline=1;darkOpacity=0.05;darkOpacity2=0.1;fontSize=20;strokeColor=#000099;fillColor=#9999FF;align=center;size=10;rotation=90;" parent="gwM2lU5lngFY_y6Us-kG-3" vertex="1">
          <mxGeometry x="178" y="60" width="70" height="55.94" as="geometry" />
        </mxCell>
        <mxCell id="ZuRAZRv1wf484eOntKRE-17" value="제어장치" style="shape=cube;whiteSpace=wrap;html=1;boundedLbl=1;backgroundOutline=1;darkOpacity=0.05;darkOpacity2=0.1;fontSize=20;strokeColor=#000099;fillColor=#67AB9F;align=center;size=10;rotation=90;" parent="gwM2lU5lngFY_y6Us-kG-3" vertex="1">
          <mxGeometry x="122.38999999999999" y="60" width="70" height="55.94" as="geometry" />
        </mxCell>
        <mxCell id="ZuRAZRv1wf484eOntKRE-18" value="&lt;span style=&quot;font-size: 11px&quot;&gt;빛센서&lt;/span&gt;" style="shape=cylinder3;whiteSpace=wrap;html=1;boundedLbl=1;backgroundOutline=1;size=10.20001220703125;fontSize=20;strokeColor=#000099;fillColor=#67AB9F;gradientColor=#ffffff;align=center;" parent="gwM2lU5lngFY_y6Us-kG-3" vertex="1">
          <mxGeometry x="149" width="40" height="50" as="geometry" />
        </mxCell>
        <mxCell id="gwM2lU5lngFY_y6Us-kG-1" value="리드 스위치 센서" style="shape=cube;whiteSpace=wrap;html=1;boundedLbl=1;backgroundOutline=1;darkOpacity=0.05;darkOpacity2=0.1;fontSize=20;strokeColor=#000099;fillColor=#CCCCCC;align=center;size=10;rotation=90;" vertex="1" parent="gwM2lU5lngFY_y6Us-kG-3">
          <mxGeometry x="248" y="50" width="80" height="75.94" as="geometry" />
        </mxCell>
        <mxCell id="gwM2lU5lngFY_y6Us-kG-4" value="" style="group" vertex="1" connectable="0" parent="WIyWlLk6GJQsqaUBKTNV-1">
          <mxGeometry x="160" y="820" width="347.38" height="136.79000000000008" as="geometry" />
        </mxCell>
        <mxCell id="gwM2lU5lngFY_y6Us-kG-5" value="" style="curved=1;endArrow=classic;html=1;rounded=0;fontSize=20;strokeColor=#999900;" edge="1" parent="gwM2lU5lngFY_y6Us-kG-4">
          <mxGeometry y="7.970000000000027" width="50" height="50" as="geometry">
            <mxPoint x="-60" y="137.97000000000003" as="sourcePoint" />
            <mxPoint x="129" y="77.97000000000003" as="targetPoint" />
            <Array as="points">
              <mxPoint x="129" y="127.97000000000003" />
              <mxPoint y="57.97000000000003" />
            </Array>
          </mxGeometry>
        </mxCell>
        <mxCell id="gwM2lU5lngFY_y6Us-kG-6" value="전류" style="edgeLabel;html=1;align=center;verticalAlign=middle;resizable=0;points=[];fontSize=20;" vertex="1" connectable="0" parent="gwM2lU5lngFY_y6Us-kG-5">
          <mxGeometry x="-0.4398" y="13" relative="1" as="geometry">
            <mxPoint as="offset" />
          </mxGeometry>
        </mxCell>
        <mxCell id="gwM2lU5lngFY_y6Us-kG-7" value="" style="shape=cube;whiteSpace=wrap;html=1;boundedLbl=1;backgroundOutline=1;darkOpacity=0.05;darkOpacity2=0.1;fontSize=20;strokeColor=#000099;fillColor=#999999;align=center;size=20;rotation=90;" vertex="1" parent="gwM2lU5lngFY_y6Us-kG-4">
          <mxGeometry x="169.19" y="-41.39999999999998" width="133.67" height="222.71" as="geometry" />
        </mxCell>
        <mxCell id="gwM2lU5lngFY_y6Us-kG-8" value="ESP" style="shape=cube;whiteSpace=wrap;html=1;boundedLbl=1;backgroundOutline=1;darkOpacity=0.05;darkOpacity2=0.1;fontSize=20;strokeColor=#000099;fillColor=#9999FF;align=center;size=10;rotation=90;" vertex="1" parent="gwM2lU5lngFY_y6Us-kG-4">
          <mxGeometry x="178" y="60" width="70" height="55.94" as="geometry" />
        </mxCell>
        <mxCell id="gwM2lU5lngFY_y6Us-kG-9" value="제어장치" style="shape=cube;whiteSpace=wrap;html=1;boundedLbl=1;backgroundOutline=1;darkOpacity=0.05;darkOpacity2=0.1;fontSize=20;strokeColor=#000099;fillColor=#67AB9F;align=center;size=10;rotation=90;" vertex="1" parent="gwM2lU5lngFY_y6Us-kG-4">
          <mxGeometry x="122.38999999999999" y="60" width="70" height="55.94" as="geometry" />
        </mxCell>
        <mxCell id="gwM2lU5lngFY_y6Us-kG-10" value="&lt;span style=&quot;font-size: 11px&quot;&gt;빛센서&lt;/span&gt;" style="shape=cylinder3;whiteSpace=wrap;html=1;boundedLbl=1;backgroundOutline=1;size=10.20001220703125;fontSize=20;strokeColor=#000099;fillColor=#67AB9F;gradientColor=#ffffff;align=center;" vertex="1" parent="gwM2lU5lngFY_y6Us-kG-4">
          <mxGeometry x="149" width="40" height="50" as="geometry" />
        </mxCell>
        <mxCell id="gwM2lU5lngFY_y6Us-kG-11" value="리드 스위치 센서" style="shape=cube;whiteSpace=wrap;html=1;boundedLbl=1;backgroundOutline=1;darkOpacity=0.05;darkOpacity2=0.1;fontSize=20;strokeColor=#000099;fillColor=#CCCCCC;align=center;size=10;rotation=90;" vertex="1" parent="gwM2lU5lngFY_y6Us-kG-4">
          <mxGeometry x="248" y="50" width="80" height="75.94" as="geometry" />
        </mxCell>
      </root>
    </mxGraphModel>
  </diagram>
</mxfile>
